<?xml version="1.0" encoding="UTF-8" standalone="no"?>
<!-- Created with Inkscape (http://www.inkscape.org/) -->

<svg
   xmlns:dc="http://purl.org/dc/elements/1.1/"
   xmlns:cc="http://creativecommons.org/ns#"
   xmlns:rdf="http://www.w3.org/1999/02/22-rdf-syntax-ns#"
   xmlns:svg="http://www.w3.org/2000/svg"
   xmlns="http://www.w3.org/2000/svg"
   xmlns:sodipodi="http://sodipodi.sourceforge.net/DTD/sodipodi-0.dtd"
   xmlns:inkscape="http://www.inkscape.org/namespaces/inkscape"
   width="42"
   height="42"
   id="svg1650"
   version="1.1"
   inkscape:version="0.92.1 r15371"
   sodipodi:docname="paw-print.svg">
  <defs
     id="defs1652" />
  <sodipodi:namedview
     id="base"
     pagecolor="#ffffff"
     bordercolor="#666666"
     borderopacity="1.0"
     inkscape:pageopacity="0.0"
     inkscape:pageshadow="2"
     inkscape:zoom="8"
     inkscape:cx="74.893985"
     inkscape:cy="6.950099"
     inkscape:document-units="px"
     inkscape:current-layer="layer1"
     showgrid="false"
     fit-margin-top="0"
     fit-margin-left="0"
     fit-margin-right="0"
     fit-margin-bottom="0"
     inkscape:window-width="1920"
     inkscape:window-height="1051"
     inkscape:window-x="-9"
     inkscape:window-y="1341"
     inkscape:window-maximized="1" />
  <metadata
     id="metadata1655">
    <rdf:RDF>
      <cc:Work
         rdf:about="">
        <dc:format>image/svg+xml</dc:format>
        <dc:type
           rdf:resource="http://purl.org/dc/dcmitype/StillImage" />
        <dc:title />
      </cc:Work>
    </rdf:RDF>
  </metadata>
  <g
     inkscape:label="Layer 1"
     inkscape:groupmode="layer"
     id="layer1"
     transform="translate(-126.93235,-661.8708)">
    <path
       style="opacity:0.75;fill:#ad8bdd;fill-opacity:1;stroke:none;stroke-width:1;stroke-miterlimit:4;stroke-dasharray:none;stroke-opacity:1"
       d="m 159.09936,666.77356 c -0.0832,-0.0222 -0.16921,-0.0431 -0.25538,-0.0609 -3.51226,-0.42159 -6.26893,2.32694 -7.33671,5.13806 -1.11737,2.50863 -0.79565,6.23252 2.16723,7.70778 0.43136,0.20828 0.9125,0.30577 1.38628,0.32113 4.08536,-0.092 6.90599,-3.71592 7.30323,-7.26874 0.44977,-2.23971 -0.68673,-5.13725 -3.26466,-5.83731 z m -14.30154,-3.91273 c -2.10495,-0.54723 -4.27531,0.9424 -5.11521,2.68377 -1.70609,3.43809 -1.16029,8.46744 2.63755,10.78719 0.36419,0.18675 0.76081,0.30803 1.16563,0.36337 2.90044,0.36388 4.87431,-2.17221 5.39988,-4.523 0.76312,-3.08119 0.0168,-7.10678 -3.19481,-8.94676 -0.29401,-0.16658 -0.59236,-0.28635 -0.89306,-0.36453 z m 20.51686,16.97245 c -3.67398,-0.82912 -7.07543,1.78908 -8.28865,4.79178 -1.09883,2.10201 -0.6316,5.46388 2.0935,6.43104 3.88097,1.05552 7.57415,-1.99931 8.59065,-5.24207 0.84447,-2.09576 0.18669,-5.11798 -2.3955,-5.98075 z m -31.87847,-8.26386 c -1.53622,-0.44961 -3.28546,-0.0313 -4.18755,1.26621 -2.40951,3.47172 -1.06583,9.1177 3.14398,11.18751 1.76982,0.81736 3.75816,-0.0286 4.65291,-1.47194 1.90479,-3.08984 0.99013,-7.56601 -1.96673,-10.05462 -0.47189,-0.44093 -1.04149,-0.75119 -1.64261,-0.92716 z m 14.30922,11.51963 c -3.01987,-0.85175 -6.47588,-0.31326 -9.01149,1.22979 -2.78833,1.84599 -5.30586,4.20081 -6.83729,7.09521 -1.4373,1.98838 -0.28288,5.07479 2.29344,5.82355 3.08257,0.96164 6.29423,-0.24228 9.42172,0.48931 2.72095,0.37683 4.71886,2.2972 6.8463,3.78705 1.78631,1.35902 4.64054,1.84387 6.2142,0.14886 1.36582,-1.79536 0.77855,-4.29052 0.29471,-6.36714 -1.19419,-3.4868 -2.48997,-7.163 -5.26847,-9.91774 -1.10802,-1.12472 -2.47829,-1.8729 -3.95312,-2.28889 z"
       id="path5047"
       inkscape:connector-curvature="0" />
  </g>
</svg>
